<svg width="908" height="417" xmlns="http://www.w3.org/2000/svg" xmlns:xlink="http://www.w3.org/1999/xlink" overflow="hidden"><g transform="translate(-186 -152)"><rect x="186" y="152" width="908" height="416" fill="#FFFFFF"/><path d="M621.5 360.167 691.757 360.167 691.757 360.833 621.5 360.833ZM691.757 360.5 689.091 356.5 697.091 360.5 689.091 364.5Z" fill="#ED7D31"/><path d="M772.5 360.167 842.757 360.167 842.757 360.833 772.5 360.833ZM842.757 360.5 840.091 356.5 848.091 360.5 840.091 364.5Z" fill="#ED7D31"/><path d="M621.5 334.167 691.757 334.167 691.757 334.833 621.5 334.833ZM691.757 334.5 689.091 330.5 697.091 334.5 689.091 338.5Z" fill="#ED7D31"/><path d="M621.5 386.167 691.757 386.167 691.757 386.833 621.5 386.833ZM691.757 386.5 689.091 382.5 697.091 386.5 689.091 390.5Z" fill="#ED7D31"/><text font-family="Times New Roman,Times New Roman_MSFontService,sans-serif" font-weight="400" font-size="16" transform="translate(648.148 324)">ctrl</text><text font-family="Times New Roman,Times New Roman_MSFontService,sans-serif" font-weight="400" font-size="16" transform="translate(630.398 351)">reg_addr</text><text font-family="Times New Roman,Times New Roman_MSFontService,sans-serif" font-weight="400" font-size="16" transform="translate(644.148 377)">imm</text><text font-family="Times New Roman,Times New Roman_MSFontService,sans-serif" font-weight="400" font-size="16" transform="translate(793.309 350)">addr</text><path d="M0-0.333333 59.6847-0.333333 59.6847 85.7742 59.3514 85.4408 96.0372 85.4408 96.0372 86.1075 59.0181 86.1075 59.0181 0 59.3514 0.333333 0 0.333333ZM96.0372 85.7742 93.3705 81.7742 101.37 85.7742 93.3705 89.7742Z" fill="#ED7D31" transform="matrix(1 0 0 -1 444.5 446.274)"/><path d="M659.5 386.5 659.5 435.634" stroke="#ED7D31" stroke-width="0.666667" stroke-miterlimit="8" fill="none" fill-rule="evenodd"/><path d="M772.5 333.167 958.72 333.167 958.72 360.142 958.387 359.809 993.938 359.809 993.938 360.476 958.054 360.476 958.054 333.5 958.387 333.833 772.5 333.833ZM993.938 360.142 991.272 356.142 999.272 360.142 991.272 364.142Z" fill="#ED7D31"/><text font-family="Times New Roman,Times New Roman_MSFontService,sans-serif" font-weight="400" font-size="16" transform="translate(785.726 324)">ex_out</text><path d="M923.5 383.167 993.757 383.167 993.757 383.833 923.5 383.833ZM993.757 383.5 991.091 379.5 999.091 383.5 991.091 387.5Z" fill="#ED7D31"/><text font-family="Times New Roman,Times New Roman_MSFontService,sans-serif" font-weight="400" font-size="16" transform="translate(937.176 394)">ma_out</text><path d="M432.833 252.833 432.833 298.86 432.167 298.86 432.167 252.833ZM432.5 252.833 428.5 255.5 432.5 247.5 436.5 255.5ZM432.5 298.86 436.5 296.193 432.5 304.193 428.5 296.193Z" fill="#ED7D31"/><path d="M583.833 252.833 583.833 298.86 583.167 298.86 583.167 252.833ZM583.5 252.833 579.5 255.5 583.5 247.5 587.5 255.5ZM583.5 298.86 587.5 296.193 583.5 304.193 579.5 296.193Z" fill="#ED7D31"/><path d="M734.833 252.833 734.833 298.86 734.167 298.86 734.167 252.833ZM734.5 252.833 730.5 255.5 734.5 247.5 738.5 255.5ZM734.5 298.86 738.5 296.193 734.5 304.193 730.5 296.193Z" fill="#ED7D31"/><path d="M885.833 252.833 885.833 298.86 885.167 298.86 885.167 252.833ZM885.5 252.833 881.5 255.5 885.5 247.5 889.5 255.5ZM885.5 298.86 889.5 296.193 885.5 304.193 881.5 296.193Z" fill="#ED7D31"/><path d="M421.833 417.5 421.833 468.86 421.167 468.86 421.167 417.5ZM421.5 468.86 425.5 466.193 421.5 474.193 417.5 466.193Z" fill="#ED7D31"/><text font-family="Times New Roman,Times New Roman_MSFontService,sans-serif" font-weight="400" font-size="16" transform="translate(396.018 450)">pc</text><path d="M443.833 422.833 443.833 474.193 443.167 474.193 443.167 422.833ZM443.5 422.833 439.5 425.5 443.5 417.5 447.5 425.5Z" fill="#ED7D31"/><text font-family="Times New Roman,Times New Roman_MSFontService,sans-serif" font-weight="400" font-size="16" transform="translate(453.57 436)">instruction</text><path d="M0-0.333333 151.322-0.333333 151.322 48.8971 150.988 48.5638 183.643 48.5638 183.643 49.2304 150.655 49.2304 150.655 0 150.988 0.333333 0 0.333333ZM183.643 48.8971 180.976 44.8971 188.976 48.8971 180.976 52.8971Z" fill="#ED7D31" transform="matrix(1 0 0 -1 659.5 436.397)"/><path d="M874.833 417.5 874.833 468.86 874.167 468.86 874.167 417.5ZM874.5 468.86 878.5 466.193 874.5 474.193 870.5 466.193Z" fill="#ED7D31"/><path d="M897.833 422.833 897.833 474.193 897.167 474.193 897.167 422.833ZM897.5 422.833 893.5 425.5 897.5 417.5 901.5 425.5Z" fill="#ED7D31"/><text font-family="Times New Roman,Times New Roman_MSFontService,sans-serif" font-weight="400" font-size="16" transform="translate(840.221 450)">addr</text><text font-family="Times New Roman,Times New Roman_MSFontService,sans-serif" font-weight="400" font-size="16" transform="translate(901.517 450)">data</text><path d="M470.5 333.167 540.757 333.167 540.757 333.833 470.5 333.833ZM540.757 333.5 538.091 329.5 546.091 333.5 538.091 337.5Z" fill="#ED7D31"/><text font-family="Times New Roman,Times New Roman_MSFontService,sans-serif" font-weight="400" font-size="16" transform="translate(496.966 324)">ctrl</text><rect x="394.5" y="303.5" width="76" height="114" stroke="#5B9BD5" stroke-width="1.33333" stroke-miterlimit="8" fill="#9DC3E6"/><text font-family="SimSun,SimSun_MSFontService,sans-serif" font-weight="400" font-size="19" transform="translate(413.459 367)">取指</text><rect x="546.5" y="303.5" width="75" height="114" stroke="#5B9BD5" stroke-width="1.33333" stroke-miterlimit="8" fill="#9DC3E6"/><text font-family="SimSun,SimSun_MSFontService,sans-serif" font-weight="400" font-size="19" transform="translate(564.64 367)">译码</text><rect x="697.5" y="303.5" width="75" height="114" stroke="#5B9BD5" stroke-width="1.33333" stroke-miterlimit="8" fill="#9DC3E6"/><text font-family="SimSun,SimSun_MSFontService,sans-serif" font-weight="400" font-size="19" transform="translate(715.821 367)">执行</text><rect x="848.5" y="303.5" width="75" height="114" stroke="#5B9BD5" stroke-width="1.33333" stroke-miterlimit="8" fill="#9DC3E6"/><text font-family="SimSun,SimSun_MSFontService,sans-serif" font-weight="400" font-size="19" transform="translate(867.003 367)">访存</text><rect x="999.5" y="303.5" width="75.9999" height="114" stroke="#5B9BD5" stroke-width="1.33333" stroke-miterlimit="8" fill="#9DC3E6"/><text font-family="SimSun,SimSun_MSFontService,sans-serif" font-weight="400" font-size="19" transform="translate(1018.18 367)">写回</text><rect x="394.5" y="171.5" width="529" height="76" stroke="#5B9BD5" stroke-width="1.33333" stroke-miterlimit="8" fill="#9DC3E6"/><text font-family="SimSun,SimSun_MSFontService,sans-serif" font-weight="400" font-size="19" transform="translate(476.398 216)">各模块输出打拍</text><text font-family="Times New Roman,Times New Roman_MSFontService,sans-serif" font-weight="400" font-size="19" transform="translate(607.064 216)">/</text><text font-family="SimSun,SimSun_MSFontService,sans-serif" font-weight="400" font-size="19" transform="translate(612.231 216)">清零，用于流水线阻塞</text><text font-family="Times New Roman,Times New Roman_MSFontService,sans-serif" font-weight="400" font-size="19" transform="translate(798.898 216)">/</text><text font-family="SimSun,SimSun_MSFontService,sans-serif" font-weight="400" font-size="19" transform="translate(804.064 216)">冲刷</text><rect x="394.5" y="473.5" width="76" height="76" stroke="#5B9BD5" stroke-width="1.33333" stroke-miterlimit="8" fill="#9DC3E6"/><text font-family="SimSun,SimSun_MSFontService,sans-serif" font-weight="400" font-size="19" transform="translate(413.459 507)">指令</text><text font-family="SimSun,SimSun_MSFontService,sans-serif" font-weight="400" font-size="19" transform="translate(404.126 530)">存储器</text><rect x="848.5" y="473.5" width="75" height="76" stroke="#5B9BD5" stroke-width="1.33333" stroke-miterlimit="8" fill="#9DC3E6"/><text font-family="SimSun,SimSun_MSFontService,sans-serif" font-weight="400" font-size="19" transform="translate(867.003 507)">数据</text><text font-family="SimSun,SimSun_MSFontService,sans-serif" font-weight="400" font-size="19" transform="translate(857.669 530)">存储器</text><rect x="205.5" y="247.5" width="152" height="226" stroke="#000000" stroke-width="1.33333" stroke-miterlimit="8" fill="#9DC3E6"/><rect x="236" y="341" width="90" height="38" fill="#FFC000"/><text font-family="DengXian,DengXian_MSFontService,sans-serif" font-weight="400" font-size="13" transform="translate(260.945 364)">预译码</text><rect x="236" y="277" width="90" height="38" fill="#FFC000"/><text font-family="DengXian,DengXian_MSFontService,sans-serif" font-weight="400" font-size="13" transform="translate(238.778 300)">计算</text><text font-family="DengXian,DengXian_MSFontService,sans-serif" font-weight="400" font-size="13" transform="translate(265.445 300)">pc</text><text font-family="DengXian,DengXian_MSFontService,sans-serif" font-weight="400" font-size="13" transform="translate(282.778 300)">&amp;</text><text font-family="DengXian,DengXian_MSFontService,sans-serif" font-weight="400" font-size="13" transform="translate(296.445 300)">取指</text><rect x="236" y="405" width="90" height="38" fill="#FFC000"/><text font-family="DengXian,DengXian_MSFontService,sans-serif" font-weight="400" font-size="13" transform="translate(254.278 428)">分支预测</text><path d="M280.833 315.5 280.833 336.623 280.167 336.623 280.167 315.5ZM280.5 336.623 283.167 333.957 280.5 341.957 277.833 333.957Z" fill="#ED7D31"/><path d="M280.833 377.5 280.833 398.623 280.167 398.623 280.167 377.5ZM280.5 398.623 283.167 395.957 280.5 403.957 277.833 395.957Z" fill="#ED7D31"/><path d="M237.833 425.337 221.5 425.337 221.5 296.167 231.167 296.167 231.167 296.833 221.833 296.833 222.167 296.5 222.167 425.004 221.833 424.671 237.833 424.671ZM231.167 296.5 228.5 293.833 236.5 296.5 228.5 299.167Z" fill="#ED7D31"/><path d="M357.5 247.5 395.295 304.193" stroke="#000000" stroke-width="0.666667" stroke-miterlimit="8" fill="none" fill-rule="evenodd"/><path d="M0 0 37.7953 56.6929" stroke="#000000" stroke-width="0.666667" stroke-miterlimit="8" fill="none" fill-rule="evenodd" transform="matrix(1 0 0 -1 357.5 474.193)"/><rect x="527.5" y="454.5" width="132" height="95" stroke="#000000" stroke-width="1.33333" stroke-miterlimit="8" fill="#9DC3E6"/><path d="M0 0 18.8976 37.7953" stroke="#000000" stroke-width="0.666667" stroke-miterlimit="8" fill="none" fill-rule="evenodd" transform="matrix(1 0 0 -1 527.5 455.295)"/><path d="M659.295 455.295 621.5 417.5" stroke="#000000" stroke-width="0.666667" stroke-miterlimit="8" fill="none" fill-rule="evenodd"/><rect x="546" y="462" width="90" height="30" fill="#FFC000"/><text font-family="DengXian,DengXian_MSFontService,sans-serif" font-weight="400" font-size="13" transform="translate(550.866 481)">压缩指令还原</text><rect x="546" y="511" width="90" height="30" fill="#FFC000"/><text font-family="DengXian,DengXian_MSFontService,sans-serif" font-weight="400" font-size="13" transform="translate(577.533 530)">译码</text><path d="M591.833 492.5 591.833 506.064 591.167 506.064 591.167 492.5ZM591.5 506.064 594.167 503.398 591.5 511.398 588.833 503.398Z" fill="#ED7D31"/></g></svg>